<svg width="120" height="120" viewBox="0 0 120 120" fill="none" xmlns="http://www.w3.org/2000/svg">
<rect width="120" height="120" rx="60" fill="#BE1D2D"/>
<path fill-rule="evenodd" clip-rule="evenodd" d="M77.1194 60.0566C77.1194 65.0272 81.1488 69.0566 86.1194 69.0566C91.0899 69.0566 95.1194 65.0272 95.1194 60.0566C95.1194 55.0861 91.0899 51.0566 86.1194 51.0566C81.1488 51.0566 77.1194 55.0861 77.1194 60.0566ZM70.4394 63.2567C71.9219 70.5598 78.3787 76.0566 86.1194 76.0566C94.9559 76.0566 102.119 68.8932 102.119 60.0566C102.119 51.2201 94.9559 44.0566 86.1194 44.0566C78.3787 44.0566 71.9219 49.5535 70.4394 56.8567L17.3194 56.8567L17.3194 63.2567L70.4394 63.2567ZM20.5194 63.2567L20.5194 69.6567L26.9194 69.6567L26.9194 63.2567L20.5194 63.2567ZM30.1194 63.2567L36.5194 63.2567L36.5194 69.6567L30.1194 69.6567L30.1194 63.2567Z" fill="white"/>
</svg>
