<svg width="120" height="120" viewBox="0 0 120 120" fill="none" xmlns="http://www.w3.org/2000/svg">
<rect width="120" height="120" rx="60" fill="#BE1D2D"/>
<path d="M31.483 69.6377L31.875 62.7338L26.0795 66.5352L24 62.9213L30.1875 59.8188L24 56.7164L26.0795 53.1025L31.875 56.9039L31.483 50H35.625L35.25 56.9039L41.0455 53.1025L43.125 56.7164L36.9205 59.8188L43.125 62.9213L41.0455 66.5352L35.25 62.7338L35.625 69.6377H31.483Z" fill="white"/>
<path d="M57.5455 69.6377L57.9375 62.7338L52.142 66.5352L50.0625 62.9213L56.25 59.8188L50.0625 56.7164L52.142 53.1025L57.9375 56.9039L57.5455 50H61.6875L61.3125 56.9039L67.108 53.1025L69.1875 56.7164L62.983 59.8188L69.1875 62.9213L67.108 66.5352L61.3125 62.7338L61.6875 69.6377H57.5455Z" fill="white"/>
<path d="M83.608 69.6377L84 62.7338L78.2045 66.5352L76.125 62.9213L82.3125 59.8188L76.125 56.7164L78.2045 53.1025L84 56.9039L83.608 50H87.75L87.375 56.9039L93.1705 53.1025L95.25 56.7164L89.0455 59.8188L95.25 62.9213L93.1705 66.5352L87.375 62.7338L87.75 69.6377H83.608Z" fill="white"/>
</svg>
