<svg width="124" height="124" viewBox="0 0 124 124" fill="none" xmlns="http://www.w3.org/2000/svg">
<circle cx="62" cy="62" r="62" fill="#FFEEF0"/>
<circle cx="62" cy="62" r="52" fill="#BE1D2D"/>
<path d="M56.8483 73.3284V72.8387C56.8829 69.6425 57.203 67.0993 57.8086 65.2091C58.4315 63.3189 59.3139 61.7895 60.4558 60.621C61.5977 59.4525 62.9732 58.3871 64.5823 57.4248C65.6204 56.7718 66.5547 56.0415 67.3852 55.2339C68.2157 54.4263 68.8732 53.4983 69.3577 52.4501C69.8421 51.4019 70.0843 50.242 70.0843 48.9704C70.0843 47.4411 69.721 46.1179 68.9943 45.001C68.2676 43.884 67.2987 43.0248 66.0876 42.4234C64.8938 41.8048 63.5615 41.4955 62.0908 41.4955C60.7586 41.4955 59.4869 41.7704 58.2758 42.3203C57.0646 42.8702 56.0611 43.7294 55.2652 44.8979C54.4693 46.0492 54.0108 47.5356 53.8897 49.357H46C46.1211 46.264 46.9084 43.652 48.3617 41.5212C49.8151 39.3733 51.7356 37.7494 54.1233 36.6496C56.5283 35.5499 59.1841 35 62.0908 35C65.2744 35 68.06 35.5928 70.4477 36.7785C72.8354 37.947 74.6867 39.5881 76.0016 41.7017C77.3339 43.7981 78 46.2468 78 49.0477C78 50.9723 77.6972 52.7079 77.0916 54.2544C76.4861 55.7838 75.621 57.1499 74.4963 58.3527C73.389 59.5556 72.0568 60.621 70.4996 61.5489C69.0289 62.4597 67.8351 63.4048 66.9181 64.3842C66.0184 65.3637 65.3609 66.5236 64.9457 67.864C64.5304 69.2043 64.3055 70.8625 64.2709 72.8387V73.3284H56.8483ZM60.7672 89C59.3485 89 58.1287 88.5017 57.1079 87.505C56.0871 86.4912 55.5766 85.2711 55.5766 83.8449C55.5766 82.4358 56.0871 81.2329 57.1079 80.2363C58.1287 79.2224 59.3485 78.7155 60.7672 78.7155C62.1687 78.7155 63.3798 79.2224 64.4006 80.2363C65.4388 81.2329 65.9578 82.4358 65.9578 83.8449C65.9578 84.79 65.7156 85.6578 65.2311 86.4482C64.764 87.2215 64.1411 87.8401 63.3625 88.3041C62.5839 88.768 61.7188 89 60.7672 89Z" fill="white"/>
</svg>
